<?xml version="1.0" encoding="UTF-8" standalone="no"?>
<svg width="377px" height="115px" viewBox="0 0 377 115" version="1.1" xmlns="http://www.w3.org/2000/svg" xmlns:xlink="http://www.w3.org/1999/xlink">
    <!-- Generator: Sketch 44.1 (41455) - http://www.bohemiancoding.com/sketch -->
    <title>acourse-logo-w-2</title>
    <desc>Created with Sketch.</desc>
    <defs></defs>
    <g id="Page-1" stroke="none" stroke-width="1" fill="none" fill-rule="evenodd">
        <g id="acourse-logo-w-2">
            <path d="M85.0938867,48.0966161 L113.306691,102.171157 C108.922149,104.610478 103.873344,106 98.5,106 C81.6553151,106 68,92.3446849 68,75.5 C68,63.4653026 74.9702169,53.0585867 85.0938867,48.0966161 Z M60,35.524923 C60,35.524923 68.5384416,28.4404476 73.5252274,25.9233525 L60,0 L60,35.524923 C49.519904,45.6206688 43,59.7989318 43,75.5 C43,90.9563234 49.3182265,104.936946 59.5128121,115 L0,115 L60,7.10542736e-15 L60,35.524923 C60,35.524923 60,35.524923 60,35.524923 Z" id="Combined-Shape" fill="#54A3FF" fill-rule="nonzero"></path>
            <path d="M174.46875,62.875 L155.90625,62.875 L149.53125,79 L146,79 L164.375,33.125 L166.40625,33.125 L184.40625,79 L180.8125,79 L174.46875,62.875 Z M157.0625,60 L173.40625,60 L167.1875,43.53125 C166.666664,42.2395769 166.04167,40.4479281 165.3125,38.15625 C164.749997,40.15626 164.13542,41.9687419 163.46875,43.59375 L157.0625,60 Z M203.65625,79.625 C198.802059,79.625 195.000014,78.0937653 192.25,75.03125 C189.499986,71.9687347 188.125,67.6979441 188.125,62.21875 C188.125,56.5937219 189.552069,52.2135573 192.40625,49.078125 C195.260431,45.9426927 199.166642,44.375 204.125,44.375 C207.062515,44.375 209.874987,44.8854116 212.5625,45.90625 L211.71875,48.65625 C208.781235,47.6770784 206.229177,47.1875 204.0625,47.1875 C199.895813,47.1875 196.739594,48.4739455 194.59375,51.046875 C192.447906,53.6198045 191.375,57.3228925 191.375,62.15625 C191.375,66.7396063 192.447906,70.328112 194.59375,72.921875 C196.739594,75.515638 199.739564,76.8125 203.59375,76.8125 C206.677099,76.8125 209.541653,76.2604222 212.1875,75.15625 L212.1875,78.03125 C210.020823,79.0937553 207.177101,79.625 203.65625,79.625 Z M248.59375,61.96875 C248.59375,67.5104444 247.250013,71.8385261 244.5625,74.953125 C241.874987,78.0677239 238.16669,79.625 233.4375,79.625 C230.458318,79.625 227.833345,78.9062572 225.5625,77.46875 C223.291655,76.0312428 221.552089,73.9687634 220.34375,71.28125 C219.135411,68.5937366 218.53125,65.4896009 218.53125,61.96875 C218.53125,56.4270556 219.874987,52.1093905 222.5625,49.015625 C225.250013,45.9218595 228.937477,44.375 233.625,44.375 C238.29169,44.375 241.953112,45.9426927 244.609375,49.078125 C247.265638,52.2135573 248.59375,56.5103894 248.59375,61.96875 Z M221.78125,61.96875 C221.78125,66.63544 222.807281,70.2760286 224.859375,72.890625 C226.911469,75.5052214 229.812481,76.8125 233.5625,76.8125 C237.312519,76.8125 240.213531,75.5052214 242.265625,72.890625 C244.317719,70.2760286 245.34375,66.63544 245.34375,61.96875 C245.34375,57.2812266 244.307302,53.6458463 242.234375,51.0625 C240.161448,48.4791538 237.250019,47.1875 233.5,47.1875 C229.749981,47.1875 226.859385,48.4739455 224.828125,51.046875 C222.796865,53.6198045 221.78125,57.2603931 221.78125,61.96875 Z M260.6875,45.03125 L260.6875,67.03125 C260.6875,70.4479338 261.406243,72.9322839 262.84375,74.484375 C264.281257,76.0364661 266.510402,76.8125 269.53125,76.8125 C273.572937,76.8125 276.546865,75.7916769 278.453125,73.75 C280.359385,71.7083231 281.3125,68.3854397 281.3125,63.78125 L281.3125,45.03125 L284.375,45.03125 L284.375,79 L281.75,79 L281.1875,74.3125 L281,74.3125 C278.791656,77.8541844 274.864612,79.625 269.21875,79.625 C261.489545,79.625 257.625,75.4896247 257.625,67.21875 L257.625,45.03125 L260.6875,45.03125 Z M309.125,44.375 C310.562507,44.375 312.104158,44.5208319 313.75,44.8125 L313.15625,47.78125 C311.739576,47.4270816 310.270841,47.25 308.75,47.25 C305.854152,47.25 303.479176,48.4791544 301.625,50.9375 C299.770824,53.3958456 298.84375,56.4999813 298.84375,60.25 L298.84375,79 L295.75,79 L295.75,45.03125 L298.375,45.03125 L298.6875,51.15625 L298.90625,51.15625 C300.30209,48.6562375 301.791659,46.9010467 303.375,45.890625 C304.958341,44.8802033 306.874989,44.375 309.125,44.375 Z M341.71875,70.15625 C341.71875,73.1979319 340.562512,75.5364502 338.25,77.171875 C335.937488,78.8072998 332.656271,79.625 328.40625,79.625 C323.864561,79.625 320.26043,78.9270903 317.59375,77.53125 L317.59375,74.1875 C321.010434,75.8958419 324.614564,76.75 328.40625,76.75 C331.760433,76.75 334.307283,76.1927139 336.046875,75.078125 C337.786467,73.9635361 338.65625,72.4791759 338.65625,70.625 C338.65625,68.9166581 337.963549,67.4791725 336.578125,66.3125 C335.192701,65.1458275 332.916682,64.0000056 329.75,62.875 C326.35415,61.6458272 323.968757,60.5885461 322.59375,59.703125 C321.218743,58.8177039 320.182295,57.8177139 319.484375,56.703125 C318.786455,55.5885361 318.4375,54.2291747 318.4375,52.625 C318.4375,50.0833206 319.505198,48.0729241 321.640625,46.59375 C323.776052,45.1145759 326.760398,44.375 330.59375,44.375 C334.260435,44.375 337.739567,45.0624931 341.03125,46.4375 L339.875,49.25 C336.54165,47.8749931 333.447931,47.1875 330.59375,47.1875 C327.822903,47.1875 325.625008,47.6458288 324,48.5625 C322.374992,49.4791713 321.5625,50.7499919 321.5625,52.375 C321.5625,54.1458422 322.192702,55.5624947 323.453125,56.625 C324.713548,57.6875053 327.177065,58.8749934 330.84375,60.1875 C333.906265,61.2916722 336.13541,62.2864539 337.53125,63.171875 C338.92709,64.0572961 339.973955,65.0624944 340.671875,66.1875 C341.369795,67.3125056 341.71875,68.6354091 341.71875,70.15625 Z M364.1875,79.625 C359.249975,79.625 355.401055,78.1041819 352.640625,75.0625 C349.880195,72.0208181 348.5,67.7604441 348.5,62.28125 C348.5,56.8645563 349.83332,52.526058 352.5,49.265625 C355.16668,46.005192 358.760394,44.375 363.28125,44.375 C367.28127,44.375 370.437488,45.7708194 372.75,48.5625 C375.062512,51.3541806 376.21875,55.1458094 376.21875,59.9375 L376.21875,62.4375 L351.75,62.4375 C351.791667,67.10419 352.880198,70.6666544 355.015625,73.125 C357.151052,75.5833456 360.208313,76.8125 364.1875,76.8125 C366.12501,76.8125 367.828118,76.6770847 369.296875,76.40625 C370.765632,76.1354153 372.624989,75.5520878 374.875,74.65625 L374.875,77.46875 C372.958324,78.3020875 371.187508,78.8697902 369.5625,79.171875 C367.937492,79.4739598 366.145843,79.625 364.1875,79.625 Z M363.28125,47.125 C360.0104,47.125 357.385427,48.2031142 355.40625,50.359375 C353.427073,52.5156358 352.270835,55.6249797 351.9375,59.6875 L372.9375,59.6875 C372.9375,55.7499803 372.083342,52.6718861 370.375,50.453125 C368.666658,48.2343639 366.302098,47.125 363.28125,47.125 Z" id="Acourse" fill="#474747"></path>
        </g>
    </g>
</svg>