<?xml version="1.0" encoding="UTF-8" standalone="no"?>
<svg width="380px" height="115px" viewBox="0 0 380 115" version="1.1" xmlns="http://www.w3.org/2000/svg" xmlns:xlink="http://www.w3.org/1999/xlink">
    <!-- Generator: Sketch 44 (41411) - http://www.bohemiancoding.com/sketch -->
    <title>Group</title>
    <desc>Created with Sketch.</desc>
    <defs></defs>
    <g id="Page-1" stroke="none" stroke-width="1" fill="none" fill-rule="evenodd">
        <path d="M85.0938867,48.0966161 L113.306691,102.171157 C108.922149,104.610478 103.873344,106 98.5,106 C81.6553151,106 68,92.3446849 68,75.5 C68,63.4653026 74.9702169,53.0585867 85.0938867,48.0966161 Z M60,35.524923 C60,35.524923 68.5384416,28.4404476 73.5252274,25.9233525 L60,0 L60,35.524923 C49.519904,45.6206688 43,59.7989318 43,75.5 C43,90.9563234 49.3182265,104.936946 59.5128121,115 L0,115 L60,7.10542736e-15 L60,35.524923 C60,35.524923 60,35.524923 60,35.524923 Z" id="Combined-Shape" fill="#54A3FF"></path>
        <text id="Acourse" font-family="OpenSans-Light, Open Sans" font-size="64" font-weight="300" fill="#474747">
            <tspan x="146" y="79">Acourse</tspan>
        </text>
    </g>
</svg>