<?xml version="1.0" encoding="utf-8"?>
<!-- Generator: Adobe Illustrator 20.1.0, SVG Export Plug-In . SVG Version: 6.00 Build 0)  -->
<svg version="1.1" id="Layer_1" xmlns="http://www.w3.org/2000/svg" xmlns:xlink="http://www.w3.org/1999/xlink" x="0px" y="0px"
	 viewBox="0 0 500 500" style="enable-background:new 0 0 500 500;" xml:space="preserve">
<style type="text/css">
	.st0{fill:#336B87;}
	.st1{fill:none;}
</style>
<path class="st0" d="M349.5,162.2L263.9,0L0,500h229.8c-24-35.6-38-77.8-38-123.2C191.8,278.4,257.4,194.5,349.5,162.2z"/>
<path class="st1" d="M344.4,380.8c-36.5,0-66-29.5-66-66c0-29.8,19.8-55,46.9-63.2l-27-53.9c-52.2,19.3-89.5,69.6-89.5,128.5
	c0,27.2,7.9,52.5,21.6,73.8h169.1l-16-32C372.5,376,359,380.8,344.4,380.8z"/>
<path class="st0" d="M314.3,357.7c0,60.9,52.1,110.2,116.3,110.2c25.8,0,49.6-8,68.9-21.4L397,252.3
	C349.2,266,314.3,308,314.3,357.7z"/>
</svg>
